# xmcd CD database file
#
# Track frame offsets:
#	150
#	16747
#	30395
#	44121
#	56593
#	67914
#	80166
#	91776
#	105003
#	116051
#	130613
#	139160
#
# Disc length: 2068 seconds
#
# Revision: 1
# Processed by: cddbd v1.5.2PL0 Copyright (c) Steve Scherf et al.
# Submitted via: CDex 1.51
#
DISCID=9208120c
DTITLE=Amin Jensen - It Feels Right
DYEAR=2006
DGENRE=Blues
TTITLE0=I Just Wanna Make It Work
TTITLE1=Tell Me
TTITLE2=On The Other Side Of The Street
TTITLE3=Beautiful Woman
TTITLE4=Dining In Heaven
TTITLE5=Innocent Smile
TTITLE6=Sister
TTITLE7=Time Stands Still
TTITLE8=Say
TTITLE9=It Feels Right
TTITLE10=Hvis Du Vil Gi' Mig En Blomst
TTITLE11=Darcow
EXTD=YEAR: 2006
EXTT0=
EXTT1=
EXTT2=
EXTT3=
EXTT4=
EXTT5=
EXTT6=
EXTT7=
EXTT8=
EXTT9=
EXTT10=
EXTT11=
PLAYORDER=
